<mxfile host="app.diagrams.net" agent="Mozilla/5.0 (Windows NT 10.0; Win64; x64) AppleWebKit/537.36 (KHTML, like Gecko) Chrome/130.0.0.0 Safari/537.36" version="24.8.3">
  <diagram name="Page-1" id="oHq42QHVVJax1kT3g-pe">
    <mxGraphModel dx="1050" dy="557" grid="1" gridSize="10" guides="1" tooltips="1" connect="1" arrows="1" fold="1" page="1" pageScale="1" pageWidth="850" pageHeight="1100" math="0" shadow="0">
      <root>
        <mxCell id="0" />
        <mxCell id="1" parent="0" />
        <mxCell id="XimyrJoo1Yjg3qIVGivY-13" style="edgeStyle=orthogonalEdgeStyle;rounded=0;orthogonalLoop=1;jettySize=auto;html=1;exitX=0.5;exitY=1;exitDx=0;exitDy=0;entryX=0.5;entryY=0;entryDx=0;entryDy=0;" edge="1" parent="1" source="XimyrJoo1Yjg3qIVGivY-1" target="XimyrJoo1Yjg3qIVGivY-6">
          <mxGeometry relative="1" as="geometry" />
        </mxCell>
        <mxCell id="XimyrJoo1Yjg3qIVGivY-15" style="edgeStyle=orthogonalEdgeStyle;rounded=0;orthogonalLoop=1;jettySize=auto;html=1;exitX=0.5;exitY=1;exitDx=0;exitDy=0;" edge="1" parent="1" source="XimyrJoo1Yjg3qIVGivY-1" target="XimyrJoo1Yjg3qIVGivY-7">
          <mxGeometry relative="1" as="geometry" />
        </mxCell>
        <mxCell id="XimyrJoo1Yjg3qIVGivY-16" style="edgeStyle=orthogonalEdgeStyle;rounded=0;orthogonalLoop=1;jettySize=auto;html=1;exitX=0.5;exitY=1;exitDx=0;exitDy=0;entryX=0.5;entryY=0;entryDx=0;entryDy=0;" edge="1" parent="1" source="XimyrJoo1Yjg3qIVGivY-1" target="XimyrJoo1Yjg3qIVGivY-8">
          <mxGeometry relative="1" as="geometry" />
        </mxCell>
        <mxCell id="XimyrJoo1Yjg3qIVGivY-17" style="edgeStyle=orthogonalEdgeStyle;rounded=0;orthogonalLoop=1;jettySize=auto;html=1;exitX=0.5;exitY=1;exitDx=0;exitDy=0;" edge="1" parent="1" source="XimyrJoo1Yjg3qIVGivY-1" target="XimyrJoo1Yjg3qIVGivY-5">
          <mxGeometry relative="1" as="geometry" />
        </mxCell>
        <mxCell id="XimyrJoo1Yjg3qIVGivY-18" style="edgeStyle=orthogonalEdgeStyle;rounded=0;orthogonalLoop=1;jettySize=auto;html=1;exitX=0.5;exitY=1;exitDx=0;exitDy=0;entryX=0.5;entryY=0;entryDx=0;entryDy=0;" edge="1" parent="1" source="XimyrJoo1Yjg3qIVGivY-1" target="XimyrJoo1Yjg3qIVGivY-3">
          <mxGeometry relative="1" as="geometry" />
        </mxCell>
        <mxCell id="XimyrJoo1Yjg3qIVGivY-19" style="edgeStyle=orthogonalEdgeStyle;rounded=0;orthogonalLoop=1;jettySize=auto;html=1;exitX=0.5;exitY=1;exitDx=0;exitDy=0;entryX=0.5;entryY=0;entryDx=0;entryDy=0;" edge="1" parent="1" source="XimyrJoo1Yjg3qIVGivY-1" target="XimyrJoo1Yjg3qIVGivY-9">
          <mxGeometry relative="1" as="geometry" />
        </mxCell>
        <mxCell id="XimyrJoo1Yjg3qIVGivY-20" style="edgeStyle=orthogonalEdgeStyle;rounded=0;orthogonalLoop=1;jettySize=auto;html=1;exitX=0.5;exitY=1;exitDx=0;exitDy=0;entryX=0.5;entryY=0;entryDx=0;entryDy=0;" edge="1" parent="1" source="XimyrJoo1Yjg3qIVGivY-1" target="XimyrJoo1Yjg3qIVGivY-10">
          <mxGeometry relative="1" as="geometry" />
        </mxCell>
        <mxCell id="XimyrJoo1Yjg3qIVGivY-1" value="HomePage" style="rounded=1;whiteSpace=wrap;html=1;fillColor=#f8cecc;strokeColor=#b85450;" vertex="1" parent="1">
          <mxGeometry x="380" y="80" width="120" height="40" as="geometry" />
        </mxCell>
        <mxCell id="XimyrJoo1Yjg3qIVGivY-3" value="Destinations" style="rounded=1;whiteSpace=wrap;html=1;fillColor=#dae8fc;strokeColor=#6c8ebf;" vertex="1" parent="1">
          <mxGeometry x="40" y="160" width="80" height="40" as="geometry" />
        </mxCell>
        <mxCell id="XimyrJoo1Yjg3qIVGivY-5" value="Site Details" style="rounded=1;whiteSpace=wrap;html=1;fillColor=#dae8fc;strokeColor=#6c8ebf;" vertex="1" parent="1">
          <mxGeometry x="160" y="160" width="80" height="40" as="geometry" />
        </mxCell>
        <mxCell id="XimyrJoo1Yjg3qIVGivY-6" value="Gallery" style="rounded=1;whiteSpace=wrap;html=1;fillColor=#dae8fc;strokeColor=#6c8ebf;" vertex="1" parent="1">
          <mxGeometry x="280" y="160" width="80" height="40" as="geometry" />
        </mxCell>
        <mxCell id="XimyrJoo1Yjg3qIVGivY-7" value="Booking" style="rounded=1;whiteSpace=wrap;html=1;fillColor=#dae8fc;strokeColor=#6c8ebf;" vertex="1" parent="1">
          <mxGeometry x="400" y="160" width="80" height="40" as="geometry" />
        </mxCell>
        <mxCell id="XimyrJoo1Yjg3qIVGivY-8" value="Reviews" style="rounded=1;whiteSpace=wrap;html=1;fillColor=#dae8fc;strokeColor=#6c8ebf;" vertex="1" parent="1">
          <mxGeometry x="520" y="160" width="80" height="40" as="geometry" />
        </mxCell>
        <mxCell id="XimyrJoo1Yjg3qIVGivY-9" value="About us" style="rounded=1;whiteSpace=wrap;html=1;fillColor=#dae8fc;strokeColor=#6c8ebf;" vertex="1" parent="1">
          <mxGeometry x="640" y="160" width="80" height="40" as="geometry" />
        </mxCell>
        <mxCell id="XimyrJoo1Yjg3qIVGivY-10" value="Contact us" style="rounded=1;whiteSpace=wrap;html=1;fillColor=#dae8fc;strokeColor=#6c8ebf;" vertex="1" parent="1">
          <mxGeometry x="760" y="160" width="80" height="40" as="geometry" />
        </mxCell>
      </root>
    </mxGraphModel>
  </diagram>
</mxfile>
